HIERARCHY
ROOT Hips
{
	OFFSET 0.00000 0.00000 0.00000
	CHANNELS 6 Xposition Yposition Zposition Zrotation Yrotation Xrotation 
	JOINT LHipJoint
	{
		OFFSET 0 0 0
		CHANNELS 3 Zrotation Yrotation Xrotation
		JOINT LeftHip
		{
			OFFSET 1.56741 -1.82513 0.67319
			CHANNELS 3 Zrotation Yrotation Xrotation
			JOINT LeftKnee
			{
				OFFSET 2.35708 -6.47604 0.00000
				CHANNELS 3 Zrotation Yrotation Xrotation
				JOINT LeftAnkle
				{
					OFFSET 2.70636 -7.43567 0.00000
					CHANNELS 3 Zrotation Yrotation Xrotation
					JOINT LeftToe
					{
						OFFSET 0.20427 -0.56122 2.08535
						CHANNELS 3 Zrotation Yrotation Xrotation
						End Site
						{
							OFFSET 0.00000 -0.00000 1.08535
						}
					}
				}
			}
		}
	}
	JOINT RHipJoint
	{
		OFFSET 0 0 0
		CHANNELS 3 Zrotation Yrotation Xrotation
		JOINT RightHip
		{
			OFFSET -1.51422 -1.82513 0.67319
			CHANNELS 3 Zrotation Yrotation Xrotation
			JOINT RightKnee
			{
				OFFSET -2.48824 -6.83638 0.00000
				CHANNELS 3 Zrotation Yrotation Xrotation
				JOINT RightAnkle
				{
					OFFSET -2.70033 -7.41909 0.00000
					CHANNELS 3 Zrotation Yrotation Xrotation
					JOINT RightToe
					{
						OFFSET -0.19750 -0.54263 2.22151
						CHANNELS 3 Zrotation Yrotation Xrotation
						End Site
						{
							OFFSET -0.00000 -0.00000 1.14915
						}
					}
				}
			}
		}
	}
	JOINT lowerback
	{
		OFFSET 0 0 0
		CHANNELS 3 Zrotation Yrotation Xrotation
		JOINT Chest
		{
			OFFSET -0.01567 2.12874 -0.15842
			CHANNELS 3 Zrotation Yrotation Xrotation
			JOINT Chest2
			{
				OFFSET 0.06098 2.13326 -0.01043
				CHANNELS 3 Zrotation Yrotation Xrotation
				JOINT lowerneck
				{
					OFFSET 0 0 0
					CHANNELS 3 Zrotation Yrotation Xrotation
					JOINT Neck
					{
						OFFSET -0.05040 1.78432 0.13387
						CHANNELS 3 Zrotation Yrotation Xrotation
						JOINT Head
						{
							OFFSET -0.00180 1.76880 -0.33303
							CHANNELS 3 Zrotation Yrotation Xrotation
							End Site
							{
								OFFSET 0.00734 1.81249 -0.12719
							}
						}
					}
				}
				JOINT LeftCollar
				{
					OFFSET 0 0 0
					CHANNELS 3 Zrotation Yrotation Xrotation
					JOINT LeftShoulder
					{
						OFFSET 3.72199 0.94188 -0.54317
CHANNELS 3 Zrotation Xrotation Yrotation
						JOINT LeftElbow
						{
OFFSET 0 -5.146010 0.000000
CHANNELS 3 Zrotation Xrotation Yrotation
							JOINT LeftWrist
							{
OFFSET 0 -3.644520 -0.000000
CHANNELS 3 Zrotation Xrotation Yrotation
								JOINT lhand
								{
									OFFSET 0 0 0
CHANNELS 3 Zrotation Xrotation Yrotation
									JOINT LFingers
									{
OFFSET 0 -0.562280 0.000000
CHANNELS 3 Zrotation Xrotation Yrotation
										End Site
										{
OFFSET 0 -0.453320 0.000000
										}
									}
								}
								JOINT LThumb
								{
OFFSET 0 0.000000 0.000000
CHANNELS 3 Zrotation Xrotation Yrotation
									End Site
									{
OFFSET 0 -0.460250 0.460250
									}
								}
							}
						}
					}
				}
				JOINT RightCollar
				{
					OFFSET 0 0 0
					CHANNELS 3 Zrotation Yrotation Xrotation
					JOINT RightShoulder
					{
						OFFSET -3.30253 1.22679 -0.46941
CHANNELS 3 Zrotation Xrotation Yrotation
						JOINT RightElbow
						{
OFFSET 0 -5.339130 0.000000
CHANNELS 3 Zrotation Xrotation Yrotation
							JOINT RightWrist
							{
OFFSET 0 -3.564780 -0.000000
CHANNELS 3 Zrotation Xrotation Yrotation
								JOINT rhand
								{
									OFFSET 0 0 0
CHANNELS 3 Zrotation Xrotation Yrotation
									JOINT RFingers
									{
OFFSET 0 -0.857470 0.000000
CHANNELS 3 Zrotation Xrotation Yrotation
										End Site
										{
OFFSET 0 -0.691320 0.000000
										}
									}
								}
								JOINT RThumb
								{
OFFSET 0 0.000000 0.000000
CHANNELS 3 Zrotation Xrotation Yrotation
									End Site
									{
OFFSET 0 -0.701870 0.701870
									}
								}
							}
						}
					}
				}
			}
		}
	}
}
MOTION
Frames: 5
Frame Time: 0.008333333333333333
-1.408700 14.475200 -8.558500 4.885800 -58.418600 -0.952600 0.000000 0.000000 0.000000 -4.792000 -13.160100 -62.449500 9.736700 17.259100 58.604700 -0.204300 -8.447100 6.033900 1.040500 -6.487400 -18.205200 0.000000 0.000000 0.000000 6.229100 17.215600 -30.927700 -20.825600 -19.983600 92.414600 3.852900 36.214100 -3.862500 -0.734200 -5.474300 15.266400 2.552500 -0.535500 33.868600 3.365000 0.044100 7.325400 2.222000 -0.259600 -9.168300 -4.237000 14.026300 -14.394900 -15.168400 21.070900 5.081000 -2.070900 9.342200 5.129800 -0.000000 0.000000 0.000000 40.400500 -23.732100 19.410700 23.265700 -34.378100 7.287800 32.162700 27.822500 -30.032400 0.000000 0.000000 0.000000 -7.125000 0.000000 0.000000 1.382000 64.304000 -0.646100 -0.000000 0.000000 0.000000 -13.885900 1.697800 -4.469300 -29.717000 -40.649600 -11.224800 -35.288300 22.253600 8.895700 0.000000 0.000000 0.000000 7.125000 0.000000 -0.000000 -7.417900 40.724000 -0.787100
-1.773526 14.071891 -7.568499 5.099528 -61.510492 -0.604199 0.000000 0.000000 0.000000 -4.797958 -13.510822 -67.083485 13.791069 19.049028 71.565096 -0.092743 -7.305252 -2.583209 1.263539 -7.119648 -20.072722 0.000000 0.000000 0.000000 3.104104 20.234185 -28.928754 -21.350990 -19.956206 93.952880 5.516389 38.923841 4.456840 -1.781617 -8.395418 23.921833 1.706129 0.367283 35.602440 2.986472 0.830925 7.441658 2.003562 0.088505 -9.592483 -3.478994 14.036736 -15.130097 -16.368822 20.887039 3.482393 -2.522180 9.287284 4.958465 0.000000 0.000000 0.000000 43.083804 -23.808686 23.013953 21.772230 -32.718468 6.462399 30.823717 26.787079 -31.430434 0.000000 0.000000 0.000000 -7.125000 0.000000 0.000000 -1.049054 65.414465 0.517961 0.000000 0.000000 0.000000 -13.363026 0.564607 -6.457884 -30.069237 -40.952562 -11.455031 -34.820897 22.036369 9.507006 0.000000 0.000000 0.000000 7.125000 0.000000 0.000000 -7.017334 41.407981 -0.623895
-2.049354 13.864823 -6.859888 2.788571 -63.224615 3.176206 0.000000 0.000000 0.000000 -4.233185 -13.057534 -70.487172 15.950735 19.602167 78.084734 0.102351 -7.564427 -7.313090 0.996307 -6.350773 -17.806103 0.000000 0.000000 0.000000 2.175614 21.469447 -28.214111 -21.189643 -19.966065 93.480179 5.810338 39.872152 4.150401 -1.480625 -7.687987 21.770490 1.331325 1.211683 36.957625 3.073802 1.738321 7.553840 1.939646 0.483871 -9.996345 -2.658154 13.888444 -15.979326 -17.444810 20.523243 2.297020 -2.949063 9.111668 4.915242 0.000000 0.000000 0.000000 45.198752 -25.072143 24.802026 20.938912 -31.756986 6.017763 30.952036 25.835466 -30.149100 0.000000 0.000000 0.000000 -7.125000 0.000000 0.000000 -0.251772 64.087111 0.120218 0.000000 0.000000 0.000000 -13.336708 -0.274575 -5.956052 -30.893319 -41.646855 -11.998897 -32.531426 19.044976 6.780736 0.000000 0.000000 0.000000 7.125000 0.000000 0.000000 -4.946140 37.966265 -0.855660
-2.333469 13.834076 -6.308491 -1.617479 -60.509658 9.424139 0.000000 0.000000 0.000000 -2.626877 -15.237512 -73.188600 16.956489 19.776438 81.069288 0.158362 -9.413012 -9.104947 0.458041 -4.339524 -12.034223 0.000000 0.000000 0.000000 3.904936 19.204044 -26.854027 -20.362198 -19.996790 91.058979 5.496103 39.569531 2.004206 -1.209750 -6.977673 19.649206 3.491034 -0.420293 36.730526 3.178928 0.513242 7.648586 1.403656 -0.111787 -9.722391 -2.365310 13.941338 -16.875375 -17.887280 20.316939 0.472614 -3.141033 9.100476 4.554138 0.000000 0.000000 0.000000 47.763568 -25.076818 25.688272 20.788862 -31.581102 5.939031 31.109262 25.228022 -31.438052 0.000000 0.000000 0.000000 -7.125000 0.000000 0.000000 -0.672882 65.505317 0.333436 0.000000 0.000000 0.000000 -12.930151 -0.979847 -3.479973 -31.866065 -42.440103 -12.650380 -33.002607 21.357989 7.132322 0.000000 0.000000 0.000000 7.125000 0.000000 0.000000 -5.358064 38.414875 -0.871788
-2.659198 13.924750 -5.848607 -3.920980 -59.250741 13.221250 0.000000 0.000000 0.000000 -2.728999 -15.198859 -74.027502 17.463616 19.845033 82.565661 0.298842 -10.806880 -11.539594 0.537228 -4.695558 -13.042435 0.000000 0.000000 0.000000 5.630824 18.381671 -24.777488 -19.218715 -19.985244 87.715019 4.656422 37.629540 -0.239523 -0.957270 -6.227497 17.446718 2.919549 -0.086391 37.321600 3.667878 0.854777 7.225320 2.100090 0.054065 -10.442832 -2.926400 13.564124 -17.127405 -17.362271 19.655693 -0.742681 -3.034517 8.900085 4.047193 0.000000 0.000000 0.000000 47.745434 -25.163336 25.410421 20.943827 -31.762704 6.020334 31.500066 25.859342 -31.702212 0.000000 0.000000 0.000000 -7.125000 0.000000 0.000000 -0.287065 65.899605 0.145295 0.000000 0.000000 0.000000 -13.300787 -0.520527 -2.343435 -32.772380 -43.154320 -13.266149 -32.633357 19.877318 4.497988 0.000000 0.000000 0.000000 7.125000 0.000000 0.000000 -4.979547 35.280889 -1.192709
